<svg width="24" height="25" viewBox="0 0 24 25" fill="none" xmlns="http://www.w3.org/2000/svg">
<path d="M12.0031 16.0769C13.1362 16.0769 14.0985 15.6803 14.8902 14.8871C15.6819 14.0939 16.0777 13.1308 16.0777 11.9977C16.0777 10.8646 15.6811 9.90224 14.888 9.11058C14.0948 8.31891 13.1316 7.92308 11.9985 7.92308C10.8655 7.92308 9.90308 8.31966 9.11141 9.11282C8.31975 9.90601 7.92391 10.8692 7.92391 12.0023C7.92391 13.1353 8.3205 14.0977 9.11366 14.8894C9.90685 15.681 10.87 16.0769 12.0031 16.0769ZM12.0008 14.7C11.2508 14.7 10.6133 14.4375 10.0883 13.9125C9.56331 13.3875 9.30081 12.75 9.30081 12C9.30081 11.25 9.56331 10.6125 10.0883 10.0875C10.6133 9.56248 11.2508 9.29998 12.0008 9.29998C12.7508 9.29998 13.3883 9.56248 13.9133 10.0875C14.4383 10.6125 14.7008 11.25 14.7008 12C14.7008 12.75 14.4383 13.3875 13.9133 13.9125C13.3883 14.4375 12.7508 14.7 12.0008 14.7ZM12.0008 19C9.8957 19 7.97039 18.4384 6.22489 17.3153C4.47937 16.1923 3.0861 14.7147 2.04509 12.8827C1.96175 12.7391 1.90085 12.5944 1.86239 12.4485C1.82392 12.3027 1.80469 12.153 1.80469 11.9995C1.80469 11.846 1.82392 11.6965 1.86239 11.551C1.90085 11.4054 1.96175 11.2609 2.04509 11.1173C3.0861 9.28525 4.47937 7.80769 6.22489 6.68463C7.97039 5.56154 9.8957 5 12.0008 5C14.1059 5 16.0312 5.56154 17.7767 6.68463C19.5223 7.80769 20.9155 9.28525 21.9565 11.1173C22.0399 11.2609 22.1008 11.4056 22.1392 11.5514C22.1777 11.6973 22.1969 11.847 22.1969 12.0005C22.1969 12.154 22.1777 12.3035 22.1392 12.449C22.1008 12.5945 22.0399 12.7391 21.9565 12.8827C20.9155 14.7147 19.5223 16.1923 17.7767 17.3153C16.0312 18.4384 14.1059 19 12.0008 19ZM12.0008 17.5C13.8841 17.5 15.6133 17.0041 17.1883 16.0125C18.7633 15.0208 19.9675 13.6833 20.8008 12C19.9675 10.3166 18.7633 8.97914 17.1883 7.98748C15.6133 6.99581 13.8841 6.49998 12.0008 6.49998C10.1175 6.49998 8.38831 6.99581 6.81331 7.98748C5.23831 8.97914 4.03415 10.3166 3.20081 12C4.03415 13.6833 5.23831 15.0208 6.81331 16.0125C8.38831 17.0041 10.1175 17.5 12.0008 17.5Z" fill="#9FA6B2"/>
</svg>
