<svg width="24" height="25" viewBox="0 0 24 25" fill="none" xmlns="http://www.w3.org/2000/svg">
<path d="M15.7736 13.4729L14.6506 12.3499C14.8211 11.4601 14.5871 10.7012 13.9486 10.073C13.3102 9.44476 12.5441 9.20374 11.6506 9.34989L10.5275 8.22684C10.7596 8.11914 10.9983 8.04157 11.2438 7.99414C11.4894 7.94671 11.7416 7.92299 12.0006 7.92299C13.1352 7.92299 14.0983 8.31882 14.89 9.11049C15.6816 9.90216 16.0775 10.8653 16.0775 11.9999C16.0775 12.2589 16.0553 12.5111 16.0111 12.7566C15.9669 13.0021 15.8877 13.2409 15.7736 13.4729ZM18.9544 16.5845L17.8506 15.5499C18.4839 15.0666 19.0506 14.5291 19.5506 13.9374C20.0506 13.3457 20.4672 12.6999 20.8006 11.9999C19.9672 10.3166 18.7631 8.97906 17.1881 7.98739C15.6131 6.99572 13.8839 6.49989 12.0006 6.49989C11.5172 6.49989 11.0464 6.53322 10.5881 6.59989C10.1297 6.66656 9.66723 6.76656 9.20056 6.89989L8.03521 5.73454C8.6711 5.48326 9.31949 5.298 9.98039 5.17877C10.6413 5.05953 11.3147 4.99991 12.0006 4.99991C14.1493 4.99991 16.123 5.55825 17.9217 6.67491C19.7204 7.79158 21.1037 9.30247 22.0717 11.2076C22.1384 11.3345 22.1867 11.4624 22.2169 11.5912C22.247 11.7201 22.2621 11.8563 22.2621 11.9999C22.2621 12.1435 22.2496 12.2797 22.2246 12.4085C22.1996 12.5374 22.1537 12.6653 22.0871 12.7922C21.7332 13.5448 21.289 14.2396 20.7544 14.8768C20.2198 15.514 19.6198 16.0832 18.9544 16.5845ZM12.0006 18.9999C9.89545 18.9999 7.96597 18.4374 6.21214 17.3124C4.45829 16.1874 3.06405 14.7056 2.02944 12.8672C1.9461 12.7403 1.88521 12.6025 1.84676 12.4537C1.8083 12.305 1.78906 12.1537 1.78906 11.9999C1.78906 11.846 1.80573 11.6973 1.83906 11.5537C1.8724 11.4102 1.93073 11.2698 2.01406 11.1326C2.38586 10.4531 2.80702 9.80599 3.27754 9.19124C3.74805 8.57649 4.28908 8.02553 4.90061 7.53837L2.64291 5.26526C2.50445 5.11655 2.43618 4.93995 2.43811 4.73546C2.44003 4.53098 2.51342 4.35631 2.65829 4.21144C2.80315 4.06657 2.9788 3.99414 3.18521 3.99414C3.39161 3.99414 3.56725 4.06657 3.71211 4.21144L20.289 20.7883C20.4275 20.9268 20.5009 21.0983 20.5092 21.3027C20.5175 21.5072 20.4441 21.687 20.289 21.8422C20.1441 21.987 19.9685 22.0595 19.7621 22.0595C19.5557 22.0595 19.3801 21.987 19.2352 21.8422L15.716 18.3537C15.1262 18.5819 14.5201 18.7467 13.8977 18.8479C13.2753 18.9492 12.6429 18.9999 12.0006 18.9999ZM5.95444 8.59216C5.36854 9.04473 4.84193 9.5566 4.37461 10.1278C3.9073 10.6989 3.51595 11.323 3.20056 11.9999C4.0339 13.6832 5.23806 15.0207 6.81306 16.0124C8.38806 17.0041 10.1172 17.4999 12.0006 17.4999C12.4301 17.4999 12.8528 17.471 13.2689 17.4133C13.6849 17.3557 14.098 17.2666 14.5083 17.146L13.2429 15.8499C13.0403 15.9383 12.8381 15.9982 12.6361 16.0297C12.4342 16.0611 12.2224 16.0768 12.0006 16.0768C10.866 16.0768 9.90283 15.681 9.11116 14.8893C8.3195 14.0976 7.92366 13.1345 7.92366 11.9999C7.92366 11.7781 7.94097 11.5662 7.97559 11.3643C8.0102 11.1624 8.06854 10.9601 8.15059 10.7576L5.95444 8.59216Z" fill="#9FA6B2"/>
</svg>
