<svg width="230" height="121" viewBox="0 0 230 121" fill="none" xmlns="http://www.w3.org/2000/svg">
<path d="M0 0H230V112.655C230 117.264 226.264 121 221.655 121H8.34483C3.73611 121 0 117.264 0 112.655V0Z" fill="#F1F1F1"/>
<path d="M183.789 0H229.999V23.8346C229.999 36.5952 219.655 46.9397 206.894 46.9397C194.134 46.9397 183.789 36.5952 183.789 23.8346V0Z" fill="#D6D7DB"/>
<path d="M136.529 0H185.89V22.2593C185.89 35.8899 174.84 46.9397 161.21 46.9397C147.579 46.9397 136.529 35.8899 136.529 22.2593V0Z" fill="#E4E4E6"/>
<path d="M91.3691 0H138.629V23.3095C138.629 36.3601 128.05 46.9397 114.999 46.9397C101.949 46.9397 91.3691 36.3601 91.3691 23.3095V0Z" fill="#D6D7DB"/>
<path d="M46.2109 0H93.4712V23.3095C93.4712 36.3601 82.8916 46.9397 69.8411 46.9397C56.7905 46.9397 46.2109 36.3601 46.2109 23.3095V0Z" fill="#E4E4E6"/>
<path d="M0 0H48.3105V22.7844C48.3105 36.125 37.4958 46.9397 24.1553 46.9397C10.8147 46.9397 0 36.125 0 22.7844V0Z" fill="#D6D7DB"/>
<path d="M103.856 69.8879L92.4199 81.2462" stroke="#D6D7DB" stroke-width="2.08621" stroke-linecap="round"/>
<path d="M103.855 81.2462L92.4196 69.8879" stroke="#D6D7DB" stroke-width="2.08621" stroke-linecap="round"/>
<path d="M138.631 69.8879L127.195 81.2462" stroke="#D6D7DB" stroke-width="2.08621" stroke-linecap="round"/>
<path d="M138.631 81.2462L127.195 69.8879" stroke="#D6D7DB" stroke-width="2.08621" stroke-linecap="round"/>
<path d="M108.174 89.7069V89.7069C112.786 86.0424 119.315 86.0424 123.927 89.7069V89.7069" stroke="#D6D7DB" stroke-width="2.08621" stroke-linecap="round"/>
</svg>
