<svg width="1920" height="80" viewBox="0 0 1920 80" fill="none" xmlns="http://www.w3.org/2000/svg">
<path d="M30 0H103V37.5C103 57.6584 86.6584 74 66.5 74C46.3416 74 30 57.6584 30 37.5V0Z" fill="#FB545B"/>
<path d="M103 0H173V39C173 58.33 157.33 74 138 74C118.67 74 103 58.33 103 39V0Z" fill="#3E45EC"/>
<path d="M173 0H244V38.5C244 58.1061 228.106 74 208.5 74C188.894 74 173 58.1061 173 38.5V0Z" fill="#FB545B"/>
<path d="M244 0H317V37.5C317 57.6584 300.658 74 280.5 74C260.342 74 244 57.6584 244 37.5V0Z" fill="#3E45EC"/>
<path d="M317 0H387V39C387 58.33 371.33 74 352 74C332.67 74 317 58.33 317 39V0Z" fill="#FB545B"/>
<path d="M460 0H530V39C530 58.33 514.33 74 495 74C475.67 74 460 58.33 460 39V0Z" fill="#FB545B"/>
<path d="M603 0H673V39C673 58.33 657.33 74 638 74C618.67 74 603 58.33 603 39V0Z" fill="#FB545B"/>
<path d="M387 0H460V37.5C460 57.6584 443.658 74 423.5 74C403.342 74 387 57.6584 387 37.5V0Z" fill="#3E45EC"/>
<path d="M530 0H603V37.5C603 57.6584 586.658 74 566.5 74C546.342 74 530 57.6584 530 37.5V0Z" fill="#3E45EC"/>
<path d="M673 0H746V37.5C746 57.6584 729.658 74 709.5 74C689.342 74 673 57.6584 673 37.5V0Z" fill="#3E45EC"/>
<path d="M746 0H819V37.5C819 57.6584 802.658 74 782.5 74C762.342 74 746 57.6584 746 37.5V0Z" fill="#FB545B"/>
<path d="M819 0H889V39C889 58.33 873.33 74 854 74C834.67 74 819 58.33 819 39V0Z" fill="#3E45EC"/>
<path d="M889 0H960V38.5C960 58.1061 944.106 74 924.5 74C904.894 74 889 58.1061 889 38.5V0Z" fill="#FB545B"/>
<path d="M960 0H1033V37.5C1033 57.6584 1016.66 74 996.5 74C976.342 74 960 57.6584 960 37.5V0Z" fill="#3E45EC"/>
<path d="M1033 0H1103V39C1103 58.33 1087.33 74 1068 74C1048.67 74 1033 58.33 1033 39V0Z" fill="#FB545B"/>
<path d="M1176 0H1246V39C1246 58.33 1230.33 74 1211 74C1191.67 74 1176 58.33 1176 39V0Z" fill="#FB545B"/>
<path d="M1319 0H1389V39C1389 58.33 1373.33 74 1354 74C1334.67 74 1319 58.33 1319 39V0Z" fill="#FB545B"/>
<path d="M1103 0H1176V37.5C1176 57.6584 1159.66 74 1139.5 74C1119.34 74 1103 57.6584 1103 37.5V0Z" fill="#3E45EC"/>
<path d="M1246 0H1319V37.5C1319 57.6584 1302.66 74 1282.5 74C1262.34 74 1246 57.6584 1246 37.5V0Z" fill="#3E45EC"/>
<path d="M1389 0H1462V37.5C1462 57.6584 1445.66 74 1425.5 74C1405.34 74 1389 57.6584 1389 37.5V0Z" fill="#3E45EC"/>
<path d="M1462 0H1532V39C1532 58.33 1516.33 74 1497 74C1477.67 74 1462 58.33 1462 39V0Z" fill="#FB545B"/>
<path d="M1605 0H1675V39C1675 58.33 1659.33 74 1640 74C1620.67 74 1605 58.33 1605 39V0Z" fill="#FB545B"/>
<path d="M1748 0H1818V39C1818 58.33 1802.33 74 1783 74C1763.67 74 1748 58.33 1748 39V0Z" fill="#FB545B"/>
<path d="M1532 0H1605V37.5C1605 57.6584 1588.66 74 1568.5 74C1548.34 74 1532 57.6584 1532 37.5V0Z" fill="#3E45EC"/>
<path d="M1675 0H1748V37.5C1748 57.6584 1731.66 74 1711.5 74C1691.34 74 1675 57.6584 1675 37.5V0Z" fill="#3E45EC"/>
<path d="M1818 0H1891V37.5C1891 57.6584 1874.66 74 1854.5 74C1834.34 74 1818 57.6584 1818 37.5V0Z" fill="#3E45EC"/>
</svg>
