<svg width="744" height="80" viewBox="0 0 744 80" fill="none" xmlns="http://www.w3.org/2000/svg">
<path d="M14 0H87V37.5C87 57.6584 70.6584 74 50.5 74C30.3416 74 14 57.6584 14 37.5V0Z" fill="#FB545B"/>
<path d="M87 0H157V39C157 58.33 141.33 74 122 74C102.67 74 87 58.33 87 39V0Z" fill="#3E45EC"/>
<path d="M157 0H228V38.5C228 58.1061 212.106 74 192.5 74C172.894 74 157 58.1061 157 38.5V0Z" fill="#FB545B"/>
<path d="M228 0H301V37.5C301 57.6584 284.658 74 264.5 74C244.342 74 228 57.6584 228 37.5V0Z" fill="#3E45EC"/>
<path d="M301 0H371V39C371 58.33 355.33 74 336 74C316.67 74 301 58.33 301 39V0Z" fill="#FB545B"/>
<path d="M444 0H514V39C514 58.33 498.33 74 479 74C459.67 74 444 58.33 444 39V0Z" fill="#FB545B"/>
<path d="M587 0H657V39C657 58.33 641.33 74 622 74C602.67 74 587 58.33 587 39V0Z" fill="#FB545B"/>
<path d="M371 0H444V37.5C444 57.6584 427.658 74 407.5 74C387.342 74 371 57.6584 371 37.5V0Z" fill="#3E45EC"/>
<path d="M514 0H587V37.5C587 57.6584 570.658 74 550.5 74C530.342 74 514 57.6584 514 37.5V0Z" fill="#3E45EC"/>
<path d="M657 0H730V37.5C730 57.6584 713.658 74 693.5 74C673.342 74 657 57.6584 657 37.5V0Z" fill="#3E45EC"/>
</svg>
