<svg width="375" height="182" viewBox="0 0 375 182" fill="none" xmlns="http://www.w3.org/2000/svg">
<g clip-path="url(#clip0_2078_31050)">
<path d="M116 45H259.656V127.468C259.656 132.18 255.836 136 251.124 136H124.532C119.82 136 116 132.18 116 127.468V45Z" fill="#F1F1F1"/>
<path d="M210.43 45H259.273V59.4323C259.273 72.92 248.339 83.8539 234.851 83.8539C221.364 83.8539 210.43 72.92 210.43 59.4323V45Z" fill="#D6D7DB"/>
<path d="M163.758 45H212.601V59.4323C212.601 72.92 201.667 83.8539 188.179 83.8539C174.692 83.8539 163.758 72.92 163.758 59.4323V45Z" fill="#E4E4E6"/>
<path d="M116 45H165.929V58.8896C165.929 72.677 154.752 83.8539 140.964 83.8539C127.177 83.8539 116 72.677 116 58.8896V45Z" fill="#D6D7DB"/>
<path d="M312.439 45H456.095V127.468C456.095 132.18 452.275 136 447.563 136H320.972C316.26 136 312.439 132.18 312.439 127.468V45Z" fill="#F1F1F1"/>
<path d="M360.197 45H409.041V59.4323C409.041 72.92 398.107 83.8539 384.619 83.8539C371.131 83.8539 360.197 72.92 360.197 59.4323V45Z" fill="#E4E4E6"/>
<path d="M312.439 45H362.368V58.8896C362.368 72.677 351.191 83.8539 337.404 83.8539C323.616 83.8539 312.439 72.677 312.439 58.8896V45Z" fill="#D6D7DB"/>
<path d="M-78.8418 45H64.8141V127.468C64.8141 132.18 60.9941 136 56.2818 136H-70.3094C-75.0217 136 -78.8418 132.18 -78.8418 127.468V45Z" fill="#F1F1F1"/>
<path d="M15.5879 45H64.4312V59.4323C64.4312 72.92 53.4972 83.8539 40.0095 83.8539C26.5218 83.8539 15.5879 72.92 15.5879 59.4323V45Z" fill="#D6D7DB"/>
<path d="M-31.084 45H17.7593V59.4323C17.7593 72.92 6.82537 83.8539 -6.66233 83.8539C-20.15 83.8539 -31.084 72.92 -31.084 59.4323V45Z" fill="#E4E4E6"/>
<path fill-rule="evenodd" clip-rule="evenodd" d="M291.458 87.1218C291.458 107.742 274.742 124.458 254.122 124.458C233.501 124.458 216.785 107.742 216.785 87.1218C216.785 66.5013 233.501 49.7851 254.122 49.7851C274.742 49.7851 291.458 66.5013 291.458 87.1218ZM277.086 127.129C270.324 131.019 262.483 133.244 254.122 133.244C228.649 133.244 208 112.594 208 87.1218C208 61.6494 228.649 41 254.122 41C279.594 41 300.244 61.6494 300.244 87.1218C300.244 100.422 294.614 112.407 285.607 120.825L319.088 160.31C320.461 161.929 320.261 164.355 318.642 165.727L316.438 167.596C314.819 168.969 312.394 168.77 311.021 167.151L277.086 127.129Z" fill="#3E45EC"/>
</g>
<defs>
<clipPath id="clip0_2078_31050">
<rect width="375" height="182" fill="white"/>
</clipPath>
</defs>
</svg>
